<?xml version="1.0" encoding="utf-8"?><svg xmlns="http://www.w3.org/2000/svg" xmlns:xlink="http://www.w3.org/1999/xlink"><symbol fill="none" viewBox="0 0 21 25" id="building" xmlns="http://www.w3.org/2000/svg"><path d="M16.479 25V4.994H0V25h3.838v-1.187c0-1.492 1.17-2.709 2.588-2.709h3.626c1.42 0 2.598 1.217 2.598 2.71V25h3.829ZM4.55 17.848c0 .106-.02.216-.058.314a.816.816 0 0 1-.163.264.76.76 0 0 1-.549.233H1.962a.756.756 0 0 1-.711-.497.873.873 0 0 1-.058-.314V15.95a.87.87 0 0 1 .058-.315.817.817 0 0 1 .163-.264.762.762 0 0 1 .548-.233H3.78a.751.751 0 0 1 .549.233.813.813 0 0 1 .163.264.874.874 0 0 1 .058.315v1.897Zm0-5.61c0 .106-.02.216-.058.314a.754.754 0 0 1-.712.497H1.962a.751.751 0 0 1-.548-.233.805.805 0 0 1-.163-.264.874.874 0 0 1-.058-.315V10.33c0-.106.019-.206.058-.304a.816.816 0 0 1 .413-.447.757.757 0 0 1 .298-.061H3.78c.101 0 .205.02.299.06a.793.793 0 0 1 .413.448.82.82 0 0 1 .058.304v1.907Zm2.01-2a.87.87 0 0 1 .222-.578.763.763 0 0 1 .549-.233h1.625a.757.757 0 0 1 .712.497.874.874 0 0 1 .058.315v1.704c0 .106-.019.206-.058.304a.817.817 0 0 1-.413.447.756.756 0 0 1-.299.06H7.331a.75.75 0 0 1-.299-.06.798.798 0 0 1-.413-.447.82.82 0 0 1-.058-.304V10.24Zm3.214 7.366c0 .107-.02.207-.058.305a.812.812 0 0 1-.414.446.756.756 0 0 1-.298.06H7.33c-.1 0-.205-.02-.298-.06a.812.812 0 0 1-.414-.446.82.82 0 0 1-.058-.305V15.85a.87.87 0 0 1 .058-.314.812.812 0 0 1 .163-.264.763.763 0 0 1 .549-.233h1.674a.751.751 0 0 1 .548.233.807.807 0 0 1 .164.264.877.877 0 0 1 .058.314v1.755Zm2.154-7.274c0-.106.02-.206.058-.304a.817.817 0 0 1 .414-.447.757.757 0 0 1 .298-.061h1.818c.1 0 .205.02.298.06a.794.794 0 0 1 .414.448.82.82 0 0 1 .058.304v1.907c0 .107-.02.217-.058.315a.754.754 0 0 1-.712.497h-1.818a.752.752 0 0 1-.548-.233.805.805 0 0 1-.164-.264.874.874 0 0 1-.058-.315V10.33Zm.472 8.268a.762.762 0 0 1-.414-.436.873.873 0 0 1-.057-.314V15.95a.87.87 0 0 1 .057-.315.816.816 0 0 1 .164-.264.762.762 0 0 1 .548-.233h1.818a.751.751 0 0 1 .549.233.814.814 0 0 1 .163.264.873.873 0 0 1 .058.315v1.897c0 .106-.02.216-.058.314a.817.817 0 0 1-.163.264.76.76 0 0 1-.549.233h-1.818c-.1 0-.205-.02-.298-.06ZM19.953 0H4.08L1.03 3.37h15.86L19.953 0ZM18.017 23.785 21 20.49V1.194l-2.983 3.282v19.309Z" fill="currentColor"/><path d="M6.424 22.724c-.583 0-1.05.492-1.05 1.09v1.183h5.732v-1.182c0-.599-.464-1.091-1.052-1.091h-3.63Z" fill="currentColor"/></symbol><symbol fill="none" viewBox="0 0 21 25" id="building" xmlns="http://www.w3.org/2000/svg"><path d="M16.479 25V4.994H0V25h3.838v-1.187c0-1.492 1.17-2.709 2.588-2.709h3.626c1.42 0 2.598 1.217 2.598 2.71V25h3.829ZM4.55 17.848c0 .106-.02.216-.058.314a.816.816 0 0 1-.163.264.76.76 0 0 1-.549.233H1.962a.756.756 0 0 1-.711-.497.873.873 0 0 1-.058-.314V15.95a.87.87 0 0 1 .058-.315.817.817 0 0 1 .163-.264.762.762 0 0 1 .548-.233H3.78a.751.751 0 0 1 .549.233.813.813 0 0 1 .163.264.874.874 0 0 1 .058.315v1.897Zm0-5.61c0 .106-.02.216-.058.314a.754.754 0 0 1-.712.497H1.962a.751.751 0 0 1-.548-.233.805.805 0 0 1-.163-.264.874.874 0 0 1-.058-.315V10.33c0-.106.019-.206.058-.304a.816.816 0 0 1 .413-.447.757.757 0 0 1 .298-.061H3.78c.101 0 .205.02.299.06a.793.793 0 0 1 .413.448.82.82 0 0 1 .058.304v1.907Zm2.01-2a.87.87 0 0 1 .222-.578.763.763 0 0 1 .549-.233h1.625a.757.757 0 0 1 .712.497.874.874 0 0 1 .058.315v1.704c0 .106-.019.206-.058.304a.817.817 0 0 1-.413.447.756.756 0 0 1-.299.06H7.331a.75.75 0 0 1-.299-.06.798.798 0 0 1-.413-.447.82.82 0 0 1-.058-.304V10.24Zm3.214 7.366c0 .107-.02.207-.058.305a.812.812 0 0 1-.414.446.756.756 0 0 1-.298.06H7.33c-.1 0-.205-.02-.298-.06a.812.812 0 0 1-.414-.446.82.82 0 0 1-.058-.305V15.85a.87.87 0 0 1 .058-.314.812.812 0 0 1 .163-.264.763.763 0 0 1 .549-.233h1.674a.751.751 0 0 1 .548.233.807.807 0 0 1 .164.264.877.877 0 0 1 .058.314v1.755Zm2.154-7.274c0-.106.02-.206.058-.304a.817.817 0 0 1 .414-.447.757.757 0 0 1 .298-.061h1.818c.1 0 .205.02.298.06a.794.794 0 0 1 .414.448.82.82 0 0 1 .058.304v1.907c0 .107-.02.217-.058.315a.754.754 0 0 1-.712.497h-1.818a.752.752 0 0 1-.548-.233.805.805 0 0 1-.164-.264.874.874 0 0 1-.058-.315V10.33Zm.472 8.268a.762.762 0 0 1-.414-.436.873.873 0 0 1-.057-.314V15.95a.87.87 0 0 1 .057-.315.816.816 0 0 1 .164-.264.762.762 0 0 1 .548-.233h1.818a.751.751 0 0 1 .549.233.814.814 0 0 1 .163.264.873.873 0 0 1 .058.315v1.897c0 .106-.02.216-.058.314a.817.817 0 0 1-.163.264.76.76 0 0 1-.549.233h-1.818c-.1 0-.205-.02-.298-.06ZM19.953 0H4.08L1.03 3.37h15.86L19.953 0ZM18.017 23.785 21 20.49V1.194l-2.983 3.282v19.309Z" fill="currentColor"/><path d="M6.424 22.724c-.583 0-1.05.492-1.05 1.09v1.183h5.732v-1.182c0-.599-.464-1.091-1.052-1.091h-3.63Z" fill="currentColor"/></symbol><symbol viewBox="0 0 20 20" id="chevron-thin-left" xmlns="http://www.w3.org/2000/svg"><path stroke="currentColor" fill="currentColor" d="M13.891 17.418c.268.272.268.709 0 .979s-.701.271-.969 0l-7.83-7.908a.697.697 0 0 1 0-.979l7.83-7.908c.268-.27.701-.27.969 0s.268.709 0 .979L6.75 10l7.141 7.418z"/></symbol><symbol viewBox="0 0 20 20" id="chevron-thin-left" xmlns="http://www.w3.org/2000/svg"><path stroke="currentColor" fill="currentColor" d="M13.891 17.418c.268.272.268.709 0 .979s-.701.271-.969 0l-7.83-7.908a.697.697 0 0 1 0-.979l7.83-7.908c.268-.27.701-.27.969 0s.268.709 0 .979L6.75 10l7.141 7.418z"/></symbol><symbol viewBox="0 0 20 20" id="chevron-thin-right" xmlns="http://www.w3.org/2000/svg"><path stroke="currentColor" fill="currentColor" d="M13.25 10 6.109 2.58a.697.697 0 0 1 0-.979.68.68 0 0 1 .969 0l7.83 7.908a.697.697 0 0 1 0 .979l-7.83 7.908c-.268.271-.701.27-.969 0s-.268-.707 0-.979L13.25 10z"/></symbol><symbol viewBox="0 0 20 20" id="chevron-thin-right" xmlns="http://www.w3.org/2000/svg"><path stroke="currentColor" fill="currentColor" d="M13.25 10 6.109 2.58a.697.697 0 0 1 0-.979.68.68 0 0 1 .969 0l7.83 7.908a.697.697 0 0 1 0 .979l-7.83 7.908c-.268.271-.701.27-.969 0s-.268-.707 0-.979L13.25 10z"/></symbol><symbol fill="none" viewBox="0 0 25 25" id="hand" xmlns="http://www.w3.org/2000/svg"><path d="M6.937 23.492 5.42 25 0 19.758l3.882-3.827a5.923 5.923 0 0 1 2.863-1.571 5.95 5.95 0 0 1 3.265.18l.853.297h5.234a1.662 1.662 0 0 1 1.187.498 1.637 1.637 0 0 1 .465 1.193 1.681 1.681 0 0 1-.539 1.138c-.32.296-.744.458-1.182.451h-3.14a.636.636 0 1 0 0 1.276h3.15a3.005 3.005 0 0 0 2.068-.81c.56-.523.894-1.24.936-2.001v-.041l2.913-3.258a1.767 1.767 0 0 1 2.423-.234 1.706 1.706 0 0 1 .616 1.175 1.69 1.69 0 0 1-.418 1.258l-5.817 6.633a4.105 4.105 0 0 1-3.083 1.388l-8.739-.01ZM18.95 9.072c0-.322-.128-.63-.357-.857a1.225 1.225 0 0 0-.863-.355H15.93V6.074a1.208 1.208 0 0 0-.376-.82 1.225 1.225 0 0 0-1.686 0c-.227.215-.362.509-.376.82V7.86h-1.799a1.229 1.229 0 0 0-.899.334 1.212 1.212 0 0 0-.279 1.353 1.212 1.212 0 0 0 .694.658c.155.057.32.083.484.076h1.799v1.785c.014.312.149.606.376.821a1.225 1.225 0 0 0 1.686 0c.227-.215.362-.51.376-.82V10.28h1.799c.323 0 .633-.128.862-.354.229-.227.357-.535.358-.856ZM7.25 2.356v1.316H5.924a.903.903 0 0 0-.636.262.89.89 0 0 0 0 1.263.903.903 0 0 0 .636.261h1.326v1.317a.89.89 0 0 0 .263.63.903.903 0 0 0 1.272 0 .89.89 0 0 0 .263-.63V5.454h1.319a.903.903 0 0 0 .635-.261.89.89 0 0 0-.636-1.525H9.043v-1.31a.89.89 0 0 0-.264-.632.903.903 0 0 0-1.272 0 .89.89 0 0 0-.263.631h.005ZM18.591 0c-.204 0-.4.08-.545.224a.763.763 0 0 0-.226.541v1.133h-1.14c-.205 0-.401.08-.546.224a.763.763 0 0 0 .545 1.307h1.141V4.56c0 .203.081.398.226.541a.774.774 0 0 0 1.316-.54V3.428h1.14a.776.776 0 0 0 .713-.473.76.76 0 0 0-.417-1 .776.776 0 0 0-.295-.058h-1.141V.765a.762.762 0 0 0-.226-.54.773.773 0 0 0-.545-.225Z" fill="currentColor"/></symbol><symbol fill="none" viewBox="0 0 25 25" id="hand" xmlns="http://www.w3.org/2000/svg"><path d="M6.937 23.492 5.42 25 0 19.758l3.882-3.827a5.923 5.923 0 0 1 2.863-1.571 5.95 5.95 0 0 1 3.265.18l.853.297h5.234a1.662 1.662 0 0 1 1.187.498 1.637 1.637 0 0 1 .465 1.193 1.681 1.681 0 0 1-.539 1.138c-.32.296-.744.458-1.182.451h-3.14a.636.636 0 1 0 0 1.276h3.15a3.005 3.005 0 0 0 2.068-.81c.56-.523.894-1.24.936-2.001v-.041l2.913-3.258a1.767 1.767 0 0 1 2.423-.234 1.706 1.706 0 0 1 .616 1.175 1.69 1.69 0 0 1-.418 1.258l-5.817 6.633a4.105 4.105 0 0 1-3.083 1.388l-8.739-.01ZM18.95 9.072c0-.322-.128-.63-.357-.857a1.225 1.225 0 0 0-.863-.355H15.93V6.074a1.208 1.208 0 0 0-.376-.82 1.225 1.225 0 0 0-1.686 0c-.227.215-.362.509-.376.82V7.86h-1.799a1.229 1.229 0 0 0-.899.334 1.212 1.212 0 0 0-.279 1.353 1.212 1.212 0 0 0 .694.658c.155.057.32.083.484.076h1.799v1.785c.014.312.149.606.376.821a1.225 1.225 0 0 0 1.686 0c.227-.215.362-.51.376-.82V10.28h1.799c.323 0 .633-.128.862-.354.229-.227.357-.535.358-.856ZM7.25 2.356v1.316H5.924a.903.903 0 0 0-.636.262.89.89 0 0 0 0 1.263.903.903 0 0 0 .636.261h1.326v1.317a.89.89 0 0 0 .263.63.903.903 0 0 0 1.272 0 .89.89 0 0 0 .263-.63V5.454h1.319a.903.903 0 0 0 .635-.261.89.89 0 0 0-.636-1.525H9.043v-1.31a.89.89 0 0 0-.264-.632.903.903 0 0 0-1.272 0 .89.89 0 0 0-.263.631h.005ZM18.591 0c-.204 0-.4.08-.545.224a.763.763 0 0 0-.226.541v1.133h-1.14c-.205 0-.401.08-.546.224a.763.763 0 0 0 .545 1.307h1.141V4.56c0 .203.081.398.226.541a.774.774 0 0 0 1.316-.54V3.428h1.14a.776.776 0 0 0 .713-.473.76.76 0 0 0-.417-1 .776.776 0 0 0-.295-.058h-1.141V.765a.762.762 0 0 0-.226-.54.773.773 0 0 0-.545-.225Z" fill="currentColor"/></symbol><symbol fill="none" viewBox="0 0 22 21" id="house-outline" xmlns="http://www.w3.org/2000/svg"><path d="M20.904 6.227 18.67 4.875V.284a.262.262 0 0 0-.263-.263h-3.314a.262.262 0 0 0-.263.263v2.27L10.667.038a.24.24 0 0 0-.085-.03.263.263 0 0 0-.196.03L.157 6.228a.262.262 0 0 0-.126.224v2.165a.262.262 0 0 0 .395.227l1.54-.9v10.578h-.733a.262.262 0 0 0-.262.263v1.953c0 .145.117.262.262.262h18.595a.263.263 0 0 0 .263-.262v-1.953a.263.263 0 0 0-.263-.263h-.733V7.944l1.54.9a.262.262 0 0 0 .396-.227V6.452a.262.262 0 0 0-.127-.225Zm-5.55-5.68h2.79v4.01l-2.79-1.685V.546Zm4.212 19.928H1.496v-1.428h18.07v1.428Zm-6.673-1.953H8.168v-8.199h4.725v8.199Zm5.677 0h-5.152v-8.461a.262.262 0 0 0-.262-.263h-5.25a.262.262 0 0 0-.263.263v8.461H2.491V7.636l8.036-4.698 8.043 4.7v10.884ZM20.506 8.16l-9.847-5.753a.263.263 0 0 0-.265 0L.556 8.16V6.6l9.97-6.033 9.98 6.032V8.16Z" fill="currentColor"/></symbol><symbol fill="none" viewBox="0 0 22 21" id="house-outline" xmlns="http://www.w3.org/2000/svg"><path d="M20.904 6.227 18.67 4.875V.284a.262.262 0 0 0-.263-.263h-3.314a.262.262 0 0 0-.263.263v2.27L10.667.038a.24.24 0 0 0-.085-.03.263.263 0 0 0-.196.03L.157 6.228a.262.262 0 0 0-.126.224v2.165a.262.262 0 0 0 .395.227l1.54-.9v10.578h-.733a.262.262 0 0 0-.262.263v1.953c0 .145.117.262.262.262h18.595a.263.263 0 0 0 .263-.262v-1.953a.263.263 0 0 0-.263-.263h-.733V7.944l1.54.9a.262.262 0 0 0 .396-.227V6.452a.262.262 0 0 0-.127-.225Zm-5.55-5.68h2.79v4.01l-2.79-1.685V.546Zm4.212 19.928H1.496v-1.428h18.07v1.428Zm-6.673-1.953H8.168v-8.199h4.725v8.199Zm5.677 0h-5.152v-8.461a.262.262 0 0 0-.262-.263h-5.25a.262.262 0 0 0-.263.263v8.461H2.491V7.636l8.036-4.698 8.043 4.7v10.884ZM20.506 8.16l-9.847-5.753a.263.263 0 0 0-.265 0L.556 8.16V6.6l9.97-6.033 9.98 6.032V8.16Z" fill="currentColor"/></symbol><symbol fill="none" viewBox="0 0 27 27" id="magnifier-outline" xmlns="http://www.w3.org/2000/svg"><path d="M25.293 26.707a1 1 0 0 0 1.414-1.414l-1.414 1.414Zm1.414-1.414-7.328-7.328-1.414 1.415 7.328 7.327 1.414-1.414ZM20.69 11.345a9.345 9.345 0 0 1-9.345 9.345v2c6.265 0 11.345-5.08 11.345-11.345h-2Zm-9.345 9.345A9.345 9.345 0 0 1 2 11.345H0C0 17.61 5.08 22.69 11.345 22.69v-2ZM2 11.345A9.345 9.345 0 0 1 11.345 2V0C5.079 0 0 5.08 0 11.345h2ZM11.345 2a9.345 9.345 0 0 1 9.345 9.345h2C22.69 5.079 17.61 0 11.345 0v2Z" fill="currentColor"/></symbol><symbol fill="none" viewBox="0 0 27 27" id="magnifier-outline" xmlns="http://www.w3.org/2000/svg"><path d="M25.293 26.707a1 1 0 0 0 1.414-1.414l-1.414 1.414Zm1.414-1.414-7.328-7.328-1.414 1.415 7.328 7.327 1.414-1.414ZM20.69 11.345a9.345 9.345 0 0 1-9.345 9.345v2c6.265 0 11.345-5.08 11.345-11.345h-2Zm-9.345 9.345A9.345 9.345 0 0 1 2 11.345H0C0 17.61 5.08 22.69 11.345 22.69v-2ZM2 11.345A9.345 9.345 0 0 1 11.345 2V0C5.079 0 0 5.08 0 11.345h2ZM11.345 2a9.345 9.345 0 0 1 9.345 9.345h2C22.69 5.079 17.61 0 11.345 0v2Z" fill="currentColor"/></symbol></svg>