<svg width="86" height="28" viewBox="0 0 86 28" fill="none" xmlns="http://www.w3.org/2000/svg">
<path d="M45.0982 7.48738C45.0982 8.44912 44.3278 9.22354 43.3718 9.22354C42.4157 9.22354 41.6459 8.44912 41.6459 7.48738C41.6459 6.52563 42.3895 5.75121 43.3718 5.75121C44.3549 5.7779 45.0982 6.55258 45.0982 7.48738ZM37.9814 10.9869V11.4144C37.9814 11.4144 37.1586 10.3454 35.4059 10.3454C32.5118 10.3454 30.2543 12.5627 30.2543 15.6345C30.2543 18.6798 32.4853 20.9235 35.4059 20.9235C37.1851 20.9235 37.9814 19.8284 37.9814 19.8284V20.2823C37.9814 20.496 38.1411 20.6559 38.3534 20.6559H40.5039V10.6117H38.3534C38.1411 10.6125 37.9814 10.7999 37.9814 10.9869ZM37.9814 17.4243C37.5835 18.0121 36.7867 18.5197 35.8309 18.5197C34.1316 18.5197 32.8301 17.4512 32.8301 15.6345C32.8301 13.818 34.1316 12.7495 35.8309 12.7495C36.7604 12.7495 37.6101 13.2837 37.9814 13.8447V17.4243ZM42.0974 10.6125H44.6464V20.6567H42.0974V10.6125ZM80.1759 10.3451C78.4233 10.3451 77.5999 11.4141 77.5999 11.4141V5.7779H75.0509V20.6567H77.202C77.4145 20.6567 77.5734 20.4696 77.5734 20.2825V19.8286C77.5734 19.8286 78.3968 20.9238 80.1489 20.9238C83.0435 20.9238 85.3005 18.6806 85.3005 15.6353C85.3005 12.5899 83.0435 10.3451 80.1759 10.3451ZM79.751 18.4927C78.7681 18.4927 77.9983 17.9857 77.5999 17.3976V13.818C77.9983 13.2837 78.848 12.7228 79.751 12.7228C81.4503 12.7228 82.7515 13.7913 82.7515 15.6078C82.7515 17.4243 81.4506 18.4927 79.751 18.4927ZM73.7235 14.6999V20.6834H71.1739V14.9935C71.1739 13.3376 70.6429 12.6694 69.2098 12.6694C68.44 12.6694 67.6431 13.0702 67.1378 13.6581V20.6569H64.5893V10.6128H66.6067C66.8192 10.6128 66.9786 10.7999 66.9786 10.9869V11.4144C67.7222 10.6395 68.7045 10.3454 69.6868 10.3454C70.8023 10.3454 71.7318 10.6664 72.4753 11.3074C73.3778 12.0554 73.7235 13.0169 73.7235 14.6999ZM58.4013 10.3451C56.6492 10.3451 55.8258 11.4141 55.8258 11.4141V5.7779H53.2768V20.6567H55.4274C55.6398 20.6567 55.7993 20.4696 55.7993 20.2825V19.8286C55.7993 19.8286 56.6227 20.9238 58.3748 20.9238C61.2694 20.9238 63.5264 18.6806 63.5264 15.6353C63.5529 12.5896 61.296 10.3451 58.4013 10.3451ZM57.9764 18.4927C56.9941 18.4927 56.2242 17.9857 55.8258 17.3976V13.818C56.2242 13.2837 57.0739 12.7228 57.9764 12.7228C59.6762 12.7228 60.9771 13.7913 60.9771 15.6078C60.9771 17.4243 59.6762 18.4927 57.9764 18.4927ZM51.0726 10.3451C51.8425 10.3451 52.2409 10.4791 52.2409 10.4791V12.8562C52.2409 12.8562 50.1166 12.1349 48.7892 13.6579V20.6831H46.2396V10.6125H48.3907C48.6032 10.6125 48.7621 10.7996 48.7621 10.9866V11.4141C49.2407 10.853 50.2763 10.3451 51.0726 10.3451ZM24.5987 19.7483C24.4661 19.4278 24.3332 19.0806 24.2006 18.7866C23.9878 18.306 23.7753 17.8515 23.5899 17.4243L23.5634 17.3976C21.7309 13.3905 19.7663 9.33055 17.6947 5.32398L17.6152 5.16333C17.3973 4.7477 17.185 4.32914 16.9782 3.90778C16.7124 3.42664 16.4472 2.91961 16.0222 2.43847C15.1725 1.36999 13.951 0.782104 12.6501 0.782104C11.3221 0.782104 10.1273 1.36999 9.25139 2.38484C8.85295 2.86545 8.56062 3.37301 8.29535 3.85415C8.08811 4.27525 7.87579 4.69379 7.65843 5.1097L7.57859 5.27034C5.53387 9.2769 3.54246 13.3371 1.71023 17.3439L1.68344 17.397C1.49775 17.8251 1.285 18.279 1.07252 18.7593C0.939879 19.0534 0.807243 19.3739 0.674607 19.7211C0.329222 20.7092 0.222843 21.6443 0.35601 22.6063C0.648074 24.6099 1.9755 26.2921 3.808 27.0407C4.4985 27.3347 5.21553 27.4682 5.95883 27.4682C6.17131 27.4682 6.43659 27.4415 6.64934 27.4145C7.5258 27.3078 8.42852 27.0142 9.30498 26.5067C10.3937 25.8921 11.4293 25.011 12.5975 23.7287C13.7658 25.011 14.828 25.8921 15.8901 26.5067C16.7668 27.0142 17.6693 27.3078 18.5455 27.4145C18.758 27.4417 19.0238 27.4682 19.2362 27.4682C19.9798 27.4682 20.7231 27.3347 21.3868 27.0407C23.2458 26.2921 24.5467 24.5832 24.8391 22.6063C25.05 21.6715 24.9438 20.737 24.5987 19.7483ZM12.6233 21.1373C11.1892 19.3208 10.2597 17.6113 9.94136 16.1692C9.80873 15.5547 9.78194 15.0204 9.86178 14.5396C9.91457 14.1121 10.0743 13.7379 10.2867 13.4174C10.7913 12.6967 11.641 12.2422 12.6235 12.2422C13.6064 12.2422 14.4826 12.6697 14.9606 13.4174C15.1731 13.7379 15.3322 14.1123 15.3858 14.5396C15.4651 15.0207 15.4386 15.5814 15.306 16.1692C14.9863 17.5846 14.0568 19.2944 12.6233 21.1373ZM23.2177 22.3928C23.032 23.7818 22.1025 24.9843 20.8016 25.5185C20.1644 25.7854 19.4737 25.8657 18.7837 25.7854C18.12 25.705 17.4557 25.4913 16.7658 25.091C15.8097 24.5562 14.8539 23.7287 13.7385 22.4996C15.4909 20.3362 16.553 18.3591 16.9515 16.5965C17.1374 15.7682 17.1642 15.0204 17.0841 14.3255C16.9783 13.6579 16.739 13.0433 16.3673 12.5091C15.5436 11.3066 14.1626 10.6125 12.623 10.6125C11.0834 10.6125 9.70235 11.3338 8.87921 12.5091C8.50757 13.0433 8.26829 13.6579 8.16218 14.3255C8.05607 15.0204 8.08233 15.7948 8.29482 16.5965C8.69299 18.3591 9.78167 20.3626 11.5075 22.5263C10.4189 23.7551 9.43629 24.5835 8.48024 25.1177C7.78974 25.5185 7.1263 25.7323 6.46258 25.812C5.74582 25.8924 5.05505 25.7854 4.44439 25.5452C3.1435 25.011 2.21398 23.8085 2.02829 22.4195C1.94871 21.7518 2.0015 21.0842 2.2673 20.3362C2.34662 20.0688 2.47978 19.8019 2.61242 19.4814C2.79838 19.0539 3.01033 18.5995 3.22308 18.1456L3.24987 18.0925C5.08184 14.1121 7.04672 10.0519 9.09144 6.09866L9.17101 5.93802C9.38376 5.53773 9.59625 5.11023 9.80847 4.70941C10.021 4.28191 10.2597 3.88109 10.552 3.53365C11.1096 2.8932 11.8529 2.54548 12.6763 2.54548C13.4997 2.54548 14.243 2.8932 14.8006 3.53365C15.093 3.88189 15.3317 4.28271 15.5442 4.70941C15.7569 5.11023 15.9694 5.53773 16.1814 5.93802L16.2612 6.09866C18.2748 10.0683 20.2135 14.0758 22.0765 18.1192V18.1458C22.2893 18.5739 22.475 19.0542 22.6874 19.4822C22.8201 19.8022 22.953 20.0691 23.0326 20.3365C23.2445 21.0303 23.3241 21.6985 23.2177 22.3928Z" fill="#718087"/>
</svg>
