<svg width="72" height="24" viewBox="0 0 72 24" fill="none" xmlns="http://www.w3.org/2000/svg">
<path d="M15.381 11.6272C16.5612 11.722 17.5526 12.1963 18.4023 13.0973C19.2521 13.9983 19.6769 15.2313 19.6769 16.7963C19.6769 18.6932 19.0632 20.2581 17.7886 21.3963C16.514 22.5344 14.7201 23.1035 12.3126 23.1035H0.699524V0.625122H12.2653C14.2953 0.625122 15.9475 1.19419 17.1749 2.28492C18.4023 3.42306 19.016 4.89316 19.016 6.74265C19.016 8.16533 18.6384 9.25605 17.8358 10.1097C17.0333 10.9633 16.2308 11.3901 15.3338 11.4849L15.381 11.6272ZM6.22279 9.91997H11.038C11.8405 9.91997 12.5014 9.68285 13.0207 9.20863C13.4927 8.7344 13.776 8.16533 13.776 7.35914C13.776 6.6478 13.5399 6.12615 13.0679 5.69935C12.5958 5.27254 11.9821 5.08285 11.274 5.08285H6.22279V9.91997ZM11.3212 18.6457C12.1709 18.6457 12.879 18.4086 13.3511 17.9818C13.8232 17.555 14.0592 16.9385 14.0592 16.1323C14.0592 15.3736 13.8232 14.8045 13.3039 14.3777C12.8318 13.9509 12.1709 13.7138 11.4156 13.7138H6.22279V18.6457H11.3212ZM38.7959 23.1035H33.4615V21.4911C32.1397 22.9138 30.393 23.6251 28.3159 23.6251C26.3332 23.6251 24.7753 22.9612 23.5951 21.6808C22.4149 20.4004 21.8013 18.6932 21.8013 16.6066V6.26842H27.0885V15.4684C27.0885 16.4643 27.3717 17.2705 27.891 17.887C28.4103 18.5035 29.1184 18.788 29.9681 18.788C31.0539 18.788 31.9036 18.4086 32.5173 17.6499C33.131 16.8911 33.4143 15.7055 33.4143 14.0932V6.26842H38.7487L38.7959 23.1035ZM55.2713 23.1035H41.1091V22.1076L47.7653 10.5365H41.2979V6.26842H55.1769V7.2643L48.5207 18.8354H55.2241V23.1035H55.2713ZM71.6995 23.1035H57.5845V22.1076L64.1935 10.5365H57.7261V6.26842H71.6051V7.2643L64.9489 18.8354H71.6523L71.6995 23.1035Z" fill="#718087"/>
</svg>
