<svg width="95" height="21" viewBox="0 0 95 21" fill="none" xmlns="http://www.w3.org/2000/svg">
<path d="M94.3 9.16818V7.51178H92.2433V4.93669L92.1743 4.95809L90.2045 5.56074V7.51178H87.1551V6.42415C87.1258 6.01238 87.2451 5.60375 87.4912 5.27234C87.6098 5.1422 87.756 5.04012 87.9189 4.97351C88.0819 4.90689 88.2577 4.87741 88.4335 4.88721C88.7424 4.89133 89.047 4.96059 89.3273 5.09048L89.403 5.12435V3.38148L89.3674 3.36855C88.9977 3.25466 88.6116 3.20314 88.2249 3.2161C87.6607 3.20721 87.1033 3.34106 86.6046 3.60524C86.1362 3.8573 85.7503 4.23891 85.4929 4.70446C85.2255 5.19933 85.0899 5.75473 85.0993 6.31717V7.51178H83.6672V9.16818H85.0993V16.1455H87.1551V9.16818H90.2045V13.6007C90.2045 15.4283 91.0657 16.3523 92.7649 16.3523C93.0584 16.3506 93.3509 16.3182 93.6376 16.2556C93.8578 16.2182 94.0717 16.1504 94.2733 16.0541L94.3005 16.038V14.3665L94.2167 14.4218C94.0891 14.5025 93.9497 14.5627 93.8035 14.6001C93.6717 14.6408 93.5352 14.6641 93.3974 14.6692C93.2371 14.6832 93.0757 14.6619 92.9246 14.6068C92.7734 14.5518 92.6361 14.4643 92.5224 14.3504C92.306 14.0243 92.2075 13.6339 92.2433 13.2441V9.16818H94.3ZM79.0751 14.6705C78.747 14.6876 78.4193 14.6304 78.1164 14.5031C77.8135 14.3759 77.5433 14.1818 77.3259 13.9355C76.8751 13.341 76.6521 12.6047 76.6974 11.8601C76.6496 11.098 76.8722 10.3435 77.3259 9.72938C77.5387 9.48123 77.8054 9.28497 78.1056 9.15558C78.4058 9.02618 78.7316 8.96707 79.0581 8.98275C79.3748 8.96754 79.6908 9.02374 79.9827 9.1472C80.2747 9.27065 80.5352 9.4582 80.7448 9.69594C81.1952 10.3046 81.4136 11.0539 81.3609 11.8092C81.4129 12.5672 81.2088 13.3207 80.7814 13.9488C80.5729 14.1937 80.31 14.3864 80.0137 14.5116C79.7174 14.6367 79.396 14.6917 79.0751 14.6705ZM79.1664 7.30049C78.5513 7.26666 77.9357 7.35925 77.3578 7.57253C76.7798 7.78581 76.2517 8.11527 75.8059 8.54057C75.389 8.99586 75.0669 9.52962 74.8584 10.1107C74.6499 10.6918 74.5593 11.3086 74.5917 11.9251C74.5622 12.5157 74.6519 13.1062 74.8556 13.6613C75.0592 14.2165 75.3726 14.7249 75.777 15.1564C76.1983 15.561 76.6978 15.8755 77.2447 16.0808C77.7917 16.286 78.3747 16.3776 78.9583 16.3501C79.5644 16.3799 80.1702 16.2835 80.7372 16.0672C81.3042 15.8508 81.8201 15.5191 82.2523 15.0931C82.6658 14.6422 82.986 14.114 83.1944 13.5389C83.4028 12.9637 83.4953 12.353 83.4666 11.7419C83.5314 10.5495 83.122 9.37976 82.3277 8.48797C81.9117 8.08204 81.4159 7.76699 80.8717 7.5628C80.3275 7.35862 79.7468 7.26975 79.1664 7.30183V7.30049ZM71.2767 7.30183C70.4218 7.26566 69.5806 7.5256 68.8951 8.03776C68.6003 8.26154 68.3626 8.5518 68.2013 8.88489C68.04 9.21798 67.9598 9.58447 67.967 9.95448C67.9599 10.321 68.028 10.6851 68.1672 11.0243C68.3053 11.3367 68.5158 11.6117 68.7814 11.8266C69.1643 12.1144 69.584 12.3495 70.0295 12.5256C70.3856 12.6654 70.7328 12.8271 71.069 13.0096C71.2459 13.1019 71.4017 13.2299 71.5268 13.3854C71.6183 13.532 71.6627 13.7031 71.6538 13.8757C71.6538 14.4552 71.2196 14.7378 70.3255 14.7378C69.9424 14.7287 69.5632 14.6593 69.2017 14.5323C68.7905 14.3979 68.4023 14.2011 68.0508 13.9488L67.9652 13.8878V15.8673L67.9964 15.882C68.346 16.0347 68.7116 16.1476 69.0863 16.2186C69.4688 16.302 69.8587 16.3468 70.2501 16.3523C71.1482 16.3992 72.0353 16.138 72.7646 15.6119C73.0643 15.382 73.3053 15.0844 73.4679 14.7436C73.6306 14.4027 73.7104 14.0282 73.7007 13.6506C73.7155 13.1118 73.5368 12.5856 73.197 12.1672C72.7212 11.6731 72.1346 11.2995 71.4858 11.0773C71.0488 10.931 70.6374 10.7171 70.2666 10.4435C70.1821 10.3555 70.1166 10.251 70.0742 10.1366C70.0319 10.0222 70.0136 9.90022 70.0206 9.77841C70.0188 9.65826 70.0463 9.53948 70.1006 9.43231C70.155 9.32515 70.2346 9.23282 70.3326 9.16328C70.5888 8.98607 70.8966 8.89919 71.2076 8.91633C71.5608 8.91801 71.9119 8.97194 72.2493 9.07635C72.572 9.17043 72.8787 9.31259 73.1591 9.49803L73.2429 9.55553V7.68027L73.2108 7.66645C72.913 7.54782 72.6034 7.46144 72.2872 7.40881C71.9535 7.34342 71.6145 7.30836 71.2745 7.30406L71.2767 7.30183ZM62.6078 14.6705C62.2797 14.6876 61.952 14.6304 61.6491 14.5031C61.3462 14.3759 61.076 14.1818 60.8587 13.9355C60.4085 13.3416 60.1857 12.6062 60.2306 11.8623C60.1828 11.1002 60.4053 10.3457 60.8591 9.7316C61.0719 9.48338 61.3385 9.28707 61.6387 9.15767C61.9389 9.02826 62.2648 8.9692 62.5913 8.98498C62.9079 8.96977 63.2239 9.02597 63.5159 9.14943C63.8079 9.27288 64.0683 9.46042 64.278 9.69817C64.7284 10.3068 64.9468 11.0562 64.894 11.8115C64.946 12.5694 64.742 13.3229 64.3146 13.9511C64.1061 14.196 63.8432 14.3887 63.5469 14.5139C63.2506 14.639 62.9292 14.6931 62.6082 14.6718L62.6078 14.6705ZM62.7 7.30272C62.0849 7.26884 61.4693 7.3614 60.8914 7.57468C60.3134 7.78797 59.7852 8.11745 59.3396 8.54279C58.9225 8.99805 58.6003 9.5318 58.3918 10.1129C58.1832 10.694 58.0925 11.3108 58.1249 11.9274C58.0954 12.518 58.1851 13.1085 58.3889 13.6637C58.5926 14.2188 58.9061 14.7272 59.3106 15.1586C59.7319 15.5632 60.2313 15.8778 60.7783 16.083C61.3253 16.2883 61.9083 16.3799 62.4919 16.3523C63.098 16.3821 63.7038 16.2857 64.2708 16.0694C64.8378 15.853 65.3537 15.5213 65.786 15.0953C66.1995 14.6445 66.5196 14.1162 66.728 13.5411C66.9364 12.9659 67.0289 12.3552 67.0002 11.7442C67.0649 10.5516 66.6554 9.38187 65.8608 8.4902C65.4449 8.08432 64.9492 7.76931 64.405 7.56512C63.8609 7.36094 63.2803 7.27204 62.7 7.30406V7.30272ZM55.0042 9.00726V7.51178H52.9734V16.1455H55.0042V11.7286C54.9751 11.0792 55.1524 10.4372 55.5106 9.89475C55.6542 9.67844 55.8498 9.50161 56.0794 9.38044C56.3091 9.25927 56.5655 9.19763 56.8251 9.20116C57.0317 9.2043 57.2369 9.23427 57.4358 9.29031C57.6031 9.3275 57.7631 9.39228 57.9092 9.48199L57.9947 9.54395V7.49707L57.9618 7.48281C57.7069 7.39174 57.4369 7.35073 57.1665 7.36201C56.6702 7.35712 56.1885 7.52976 55.8083 7.84876C55.4524 8.16135 55.1833 8.56056 55.0269 9.00771L55.0042 9.00726ZM49.3365 7.30361C48.4761 7.28628 47.6256 7.49075 46.8671 7.89735C46.1696 8.28119 45.6024 8.86445 45.2383 9.57247C44.8545 10.3423 44.6626 11.1935 44.6789 12.0535C44.6688 12.829 44.8559 13.5944 45.2227 14.2778C45.5708 14.9255 46.0985 15.459 46.7423 15.8143C47.424 16.1812 48.1884 16.3671 48.9625 16.3541C49.8159 16.3815 50.6615 16.1836 51.4142 15.7804L51.4409 15.7653V13.9043L51.3553 13.9667C51.0514 14.1871 50.7166 14.3615 50.3617 14.4842C50.0501 14.6005 49.7212 14.6642 49.3887 14.6727C49.0375 14.6898 48.6867 14.6327 48.3591 14.505C48.0315 14.3774 47.7346 14.1821 47.4876 13.9319C46.9953 13.365 46.7438 12.6283 46.7864 11.8788C46.7491 11.1083 47.011 10.3532 47.5174 9.77128C47.7603 9.51173 48.056 9.30724 48.3845 9.17161C48.7131 9.03597 49.0669 8.97233 49.4221 8.98498C50.122 8.99596 50.7998 9.23179 51.3553 9.65761L51.4405 9.71957V7.75828L51.4128 7.74268C51.1171 7.59071 50.8004 7.4836 50.4732 7.42486C50.0999 7.3458 49.7195 7.30503 49.3379 7.30317L49.3365 7.30361ZM43.281 7.51133H41.2502V16.1455H43.281V7.51133ZM42.2866 3.83347C41.9648 3.82835 41.6539 3.95022 41.4214 4.17268C41.3043 4.28005 41.2115 4.41111 41.149 4.55713C41.0865 4.70315 41.0558 4.8608 41.059 5.0196C41.0554 5.17549 41.0855 5.33031 41.147 5.47359C41.2085 5.61687 41.3001 5.74524 41.4156 5.85003C41.6513 6.06915 41.9631 6.18779 42.2848 6.18077C42.6074 6.1872 42.92 6.06888 43.1576 5.85047C43.2745 5.74644 43.3676 5.6183 43.4303 5.47487C43.493 5.33143 43.5239 5.17612 43.5209 5.0196C43.5225 4.86322 43.492 4.70817 43.4312 4.56408C43.3703 4.42 43.2806 4.28996 43.1674 4.18204C43.0512 4.06748 42.9132 3.97756 42.7614 3.91766C42.6097 3.85776 42.4474 3.82913 42.2843 3.83347H42.2866ZM37.2171 6.87436V16.1459H39.2898V4.09824H36.4214L32.7752 13.0466L29.2368 4.09824H26.2503V16.145H28.1983V6.87347H28.2651L32.0014 16.145H33.4724L37.1507 6.87347L37.2171 6.87436Z" fill="#718087"/>
<path d="M9.67564 9.62586H0.121918V0.0721436H9.67564V9.62586Z" fill="#718087"/>
<path d="M20.2243 9.62586H10.6705V0.0721436H20.2243V9.62586Z" fill="#718087"/>
<path d="M9.67564 20.178H0.121918V10.6243H9.67564V20.178Z" fill="#718087"/>
<path d="M20.2243 20.178H10.6705V10.6243H20.2243V20.178Z" fill="#718087"/>
</svg>
