<svg width="76" height="17" viewBox="0 0 76 17" fill="none" xmlns="http://www.w3.org/2000/svg">
<path d="M12.4755 0.125122H15.3599V9.47746C15.3599 14.398 12.2843 16.1251 7.82224 16.1251C3.37611 16.1251 0.300476 14.398 0.300476 9.47746V0.499867C0.300476 0.239175 0.427964 0.125122 0.682938 0.125122H3.56734V9.33082C3.56734 12.2799 4.84222 13.5019 7.82224 13.5019C10.8182 13.5019 12.0931 12.2799 12.0931 9.33082V0.499867C12.0931 0.239175 12.2206 0.125122 12.4755 0.125122ZM45.1283 2.68317V6.62614H52.4269C52.5544 6.62614 52.6022 6.69131 52.5544 6.82166L51.7576 8.84203C51.6779 9.02125 51.5664 9.10272 51.3273 9.10272H47.0406C45.6382 9.10272 45.1283 9.54264 45.1283 10.5039V13.2901H55.0085C55.136 13.2901 55.1838 13.3553 55.136 13.4856L54.3074 15.5874C54.2277 15.7667 54.1161 15.8481 53.8771 15.8481H43.0566C42.2279 15.8481 41.9092 15.5549 41.9092 14.9194V1.21677C41.9092 0.450988 42.3235 0.125122 43.4072 0.125122H55.0085C55.136 0.125122 55.1838 0.190295 55.136 0.304348L54.3074 2.42247C54.2277 2.6017 54.1161 2.68317 53.8771 2.68317H45.1283ZM35.9651 11.4978C35.9651 14.6424 33.7978 15.8481 30.754 15.8481H22.6905C21.8459 15.8481 21.5431 15.5549 21.5431 14.9194V1.21677C21.5431 0.450988 21.9415 0.125122 23.0411 0.125122H29.5907C32.4592 0.125122 35.232 0.630214 35.232 4.11698C35.232 5.61596 34.7062 6.88683 33.4472 7.55486C35.1842 8.02736 35.9651 9.6241 35.9651 11.4978ZM24.7143 6.67502H29.8298C31.519 6.67502 31.997 6.007 31.997 4.63836C31.997 3.26973 31.519 2.61799 29.8298 2.61799H24.7143V6.67502ZM32.7301 11.2046C32.7301 9.75445 32.2361 9.03755 30.4194 9.03755H26.6426C25.2402 9.03755 24.7143 9.47746 24.7143 10.4388V13.3553H30.4194C32.2361 13.3553 32.7301 12.6384 32.7301 11.2046ZM75.1197 15.8481H72.1875C71.9484 15.8481 71.8528 15.7504 71.7572 15.5874L68.6497 9.85221H65.7972C64.3948 9.85221 63.8689 10.2921 63.8689 11.2534V15.8481H61.0642C60.8092 15.8481 60.6817 15.7178 60.6817 15.4734V1.21677C60.6817 0.450988 61.0961 0.125122 62.1797 0.125122H68.7612C72.6018 0.125122 74.9125 1.1516 74.9125 4.96423C74.9125 7.91331 73.5261 9.07013 71.805 9.52634L75.2631 15.5712C75.3269 15.6689 75.3269 15.8481 75.1197 15.8481ZM71.6775 5.0294C71.6775 3.43266 71.2473 2.65058 69.2393 2.65058H63.8689V7.40822H69.2393C71.2473 7.40822 71.6775 6.64243 71.6775 5.0294Z" fill="#718087"/>
</svg>
