<svg width="99" height="19" viewBox="0 0 99 19" fill="none" xmlns="http://www.w3.org/2000/svg">
<path d="M33.6185 0.0739221V7.2597H23.6074V0.0739221L19.9612 0.0706787V18.1891H23.6074V10.4053H33.6185V18.1891H37.2707V0.0739221H33.6185Z" fill="#718087"/>
<path d="M82.1253 0.074585V18.1854H98.1219L96.0959 14.997H85.7818V10.406H95.7691V7.33504H85.7818V3.1883H96.0786L98.0635 0.074585H82.1253Z" fill="#718087"/>
<path d="M6.40801 0.0697021C2.61518 0.0697021 0.699524 2.3755 0.699524 5.73057V12.4937C0.699524 16.3764 3.1682 18.1892 6.38907 18.1892L17.8288 18.1881L15.708 14.8764H7.0958C5.2662 14.8764 4.46911 14.2151 4.46911 12.1674V6.03144C4.46911 4.05195 5.14012 3.27974 7.1445 3.27974H15.7979L17.8342 0.0697021H6.40801Z" fill="#718087"/>
<path d="M66.1229 0.0652398C63.9324 0.0652398 61.6872 1.38183 61.6872 4.76829V5.63843C61.6872 9.16882 63.8475 10.5157 66.0088 10.5249H73.595C74.3829 10.5249 75.0231 10.6559 75.0231 11.9876L75.022 13.5261C75.0019 14.7225 74.4051 14.9964 73.5679 14.9964H63.5877L61.5433 18.1847H73.8028C76.759 18.1847 78.7661 16.7139 78.7661 13.3167V12.0682C78.7661 8.78354 76.9013 7.23154 74.01 7.23154H66.7663C65.9633 7.23154 65.4038 7.01238 65.4038 5.82296V4.57022C65.4038 3.55721 65.7874 3.18761 66.7231 3.18761L76.2276 3.18383L78.2141 0.0609131L66.1229 0.0652398Z" fill="#718087"/>
<path d="M47.8643 0.074585L39.2737 18.1887H43.3339L45.0071 14.4478H54.3423L56.0101 18.1887H60.0881L51.4775 0.074585H47.8643ZM49.6658 3.8355L52.9667 11.3644H46.3859L49.6658 3.8355Z" fill="#718087"/>
</svg>
