<svg width="97" height="24" viewBox="0 0 97 24" fill="none" xmlns="http://www.w3.org/2000/svg">
<path opacity="0.8" d="M21.684 15.9883V20.9467C19.8815 22.5318 15.5744 23.4747 12.3677 23.4747C9.16511 23.4747 0.300476 21.4914 0.300476 12.1719C0.300476 2.85237 8.7381 0.844595 12.1419 0.844595C15.5498 0.844595 19.1794 1.46237 21.2816 2.85237V7.21339C21.2816 7.75801 20.5302 7.70924 20.5302 7.21339C20.481 6.46962 18.4773 2.01106 13.4681 2.1086C8.06062 2.21834 4.40637 6.42491 4.40637 11.9727C4.40637 17.5205 7.95798 22.2839 13.3203 22.1335C15.0612 22.0847 16.876 21.5401 17.7546 20.8167L17.7752 15.9883C17.7752 14.6023 16.9253 14.1065 16.0753 14.1065C15.521 14.1065 15.521 13.3139 16.0753 13.3139H23.3838C23.934 13.3139 23.934 14.1553 23.3838 14.1065C22.538 14.1065 21.684 14.6023 21.684 15.9883ZM70.9589 7.21745C70.9589 7.76207 70.4087 7.7133 70.4087 7.21745C70.3553 6.47368 68.3557 1.86474 63.3465 1.96635C57.9391 2.07202 54.2807 6.42897 54.2807 11.9768C54.2807 17.5246 57.7872 22.4343 63.1453 22.288C68.5035 22.1376 71.0574 16.8865 71.2586 16.1915C71.4598 15.4965 71.8088 15.5981 71.8088 16.1427V20.207C69.608 21.7921 65.4488 23.4788 62.2462 23.4788C59.0436 23.4788 50.1789 21.4954 50.1789 12.1759C50.1789 2.85237 58.5919 0.625122 61.9957 0.625122C65.4036 0.625122 68.8567 1.46644 70.963 2.85237V7.21745H70.9589ZM48.2738 1.16974C49.0744 1.16974 49.0744 1.91351 48.2738 1.91351C47.4239 1.91351 46.5739 2.40936 46.5739 3.79529L46.4754 14.6267C46.4754 19.8128 42.2258 23.6251 36.9826 23.6251C31.7393 23.6251 27.6458 19.8128 27.6458 14.6267V3.79529C27.6458 2.4053 26.7917 1.91351 25.9418 1.91351C25.1412 1.91351 25.1412 1.16974 25.9418 1.16974H33.353C34.1536 1.16974 34.1536 1.91351 33.353 1.91351C32.4989 1.91351 31.649 2.40936 31.649 3.79529L31.6408 15.8907C31.6408 19.5486 34.6627 22.5156 38.358 22.5156C42.0534 22.5156 45.0507 18.8048 45.0507 15.151L44.87 3.79529C44.87 2.4053 44.0201 1.91351 43.166 1.91351C42.3695 1.91351 42.3695 1.16974 43.166 1.16974H48.2738ZM95.4464 7.21745C95.4464 7.76207 94.8962 7.7133 94.8962 7.21745C94.847 6.47368 92.8433 1.86474 87.8341 1.96635C82.4266 2.07202 78.7683 6.42897 78.7683 11.9768C78.7683 17.5246 82.2747 22.4343 87.6329 22.288C92.9911 22.1416 95.545 16.8865 95.7462 16.1915C95.9474 15.4965 96.3005 15.5981 96.3005 16.1427V20.207C94.0956 21.7921 89.9404 23.4788 86.7337 23.4788C83.5311 23.4788 74.6665 21.4954 74.6665 12.1759C74.6665 2.85237 83.0795 0.625122 86.4874 0.625122C89.8912 0.625122 93.3483 1.46644 95.4506 2.85237V7.21745H95.4464Z" fill="#718087"/>
</svg>
